{"title":"Geordie Shore Big Birthday Battle S01E02 1080P WEB-DL AAC2 0 H 2","uid":14644365,"size":1600729282,"categoryP":"video","categoryS":"hd___tv_shows","magnet":"?xt=urn:btih:934a2df49598e83b85dde7543f62b04aeed3e6cd&amp;dn=Geordie+Shore+Big+Birthday+Battle+S01E02+1080P+WEB-DL+AAC2+0+H+2&amp;tr=udp%3A%2F%2Ftracker.leechers-paradise.org%3A6969&amp;tr=udp%3A%2F%2Fzer0day.ch%3A1337&amp;tr=udp%3A%2F%2Fopen.demonii.com%3A1337&amp;tr=udp%3A%2F%2Ftracker.coppersurfer.tk%3A6969&amp;tr=udp%3A%2F%2Fexodus.desync.com%3A6969","seeders":7,"leechers":0,"uploader":"jmanwf","files":1,"time":1463572780,"description":"Description\r\nAs 2 more faces walk through the door the competition really hots up! There is a race to the shag pad but who will win, Aaron and Marnie or Chloe and Marty? Gary shows Charlotte commitment she's never seen before, but is everyone happy for them?\r\n\r\nVideo\r\nID : 2\r\nFormat : AVC\r\nFormat/Info : Advanced Video Codec\r\nFormat profile :   \r\nFormat settings, CABAC : Yes\r\nFormat settings, ReFrames : 4 frames\r\nCodec ID : avc1\r\nCodec ID/Info : Advanced Video Coding\r\nDuration : 41mn 57s\r\nBit rate : 4 957 Kbps\r\nWidth : 1 920 pixels\r\nHeight : 1 080 pixels\r\nDisplay aspect ratio : 16:9\r\nFrame rate mode : Constant\r\nFrame rate : 25.000 fps\r\nColor space : YUV\r\nChroma subsampling : 4:2:0\r\nBit depth : 8 bits\r\nScan type : Progressive\r\nBits/(Pixel*Frame) : 0.096\r\nStream size : 1.45 GiB (97%)\r\nLanguage : English\r\nEncoded date : UTC 2016-05-18 05:17:01\r\nTagged date : UTC 2016-05-18 05:20:16\r\nColor range : Limited\r\nColor primaries : BT.709\r\nTransfer characteristics : BT.709\r\nMatrix coefficients : BT.709\r\n\r\nAudio\r\nID : 1\r\nFormat : AAC\r\nFormat/Info : Advanced Audio Codec\r\nFormat profile : LC\r\nCodec ID : 40\r\nDuration : 41mn 57s\r\nBit rate mode : Variable\r\nBit rate : 126 Kbps\r\nMaximum bit rate : 219 Kbps\r\nChannel(s) : 2 channels\r\nChannel positions : Front: L R\r\nSampling rate : 48.0 KHz\r\nFrame rate : 46.875 fps (1024 spf)\r\nCompression mode : Lossy\r\nStream size : 37.7 MiB (2%)\r\nLanguage : English\r\nDefault : Yes\r\nAlternate group : 1\r\nEncoded date : UTC 2016-05-18 05:17:01\r\nTagged date : UTC 2016-05-18 05:20:16","torrent":{"xt":"urn:btih:934a2df49598e83b85dde7543f62b04aeed3e6cd","amp;dn":"Geordie+Shore+Big+Birthday+Battle+S01E02+1080P+WEB-DL+AAC2+0+H+2","amp;tr":["udp%3A%2F%2Ftracker.leechers-paradise.org%3A6969","udp%3A%2F%2Fzer0day.ch%3A1337","udp%3A%2F%2Fopen.demonii.com%3A1337","udp%3A%2F%2Ftracker.coppersurfer.tk%3A6969","udp%3A%2F%2Fexodus.desync.com%3A6969"],"infoHash":"934a2df49598e83b85dde7543f62b04aeed3e6cd","infoHashBuffer":{"type":"Buffer","data":[147,74,45,244,149,152,232,59,133,221,231,84,63,98,176,74,238,211,230,205]},"announce":[],"urlList":[]}}